<svg xmlns:mydata="http://www.w3.org/2000/svg" mydata:contrastcolor="11111f" mydata:template="Contrast" mydata:presentation="2.5" mydata:layouttype="undefined" mydata:specialfontid="undefined" mydata:id1="093" mydata:id2="093" mydata:companyname="Delivery UP" mydata:companytagline="" version="1.1" xmlns="http://www.w3.org/2000/svg" xmlns:xlink="http://www.w3.org/1999/xlink" style="height: 231px;" viewBox="0 50 550 370"><g fill="#ff4400" fill-rule="nonzero" stroke="none" stroke-width="1" stroke-linecap="butt" stroke-linejoin="miter" stroke-miterlimit="10" stroke-dasharray="" stroke-dashoffset="0" font-family="none" font-weight="none" font-size="none" text-anchor="none" style="mix-blend-mode: normal"><g data-paper-data="{&quot;isGlobalGroup&quot;:true,&quot;bounds&quot;:{&quot;x&quot;:66.65344616428413,&quot;y&quot;:114.99999999999997,&quot;width&quot;:416.6931076714318,&quot;height&quot;:240.00000000000003}}"><g data-paper-data="{&quot;isPrimaryText&quot;:true}" id="element-id-98338"><path d="M105.97002,328.85846c0,0.35749 0.01117,0.7485 0.03351,1.17302c0.02234,0.42452 -0.01117,0.79318 -0.10054,1.10599v0.6703c-0.04469,0.13406 -0.05586,0.29046 -0.03351,0.46921c0.02234,0.17875 0.01117,0.3128 -0.03351,0.40218c-0.04469,0.22343 -0.06703,0.45804 -0.06703,0.70381c0,0.24578 -0.02234,0.48038 -0.06703,0.70381c-0.13406,0.62561 -0.22343,1.28473 -0.26812,1.97737c-0.04469,0.69264 -0.17875,1.35176 -0.40218,1.97737c-0.13406,0.53624 -0.27929,1.08364 -0.43569,1.64222c-0.1564,0.55858 -0.34632,1.10599 -0.56975,1.64222c-0.75967,1.92151 -1.70925,3.65311 -2.84876,5.19479c-1.1395,1.54168 -2.5583,2.84876 -4.25638,3.92123c-0.84904,0.53624 -1.75394,0.99427 -2.7147,1.37411c-0.96076,0.37983 -1.99972,0.7485 -3.11688,1.10599c-0.49155,0.17875 -1.01662,0.30163 -1.5752,0.36866c-0.55858,0.06703 -1.10599,0.16757 -1.64222,0.30163c-0.49155,0.08937 -0.97193,0.13406 -1.44114,0.13406c-0.46921,0 -0.92724,0.04469 -1.37411,0.13406h-0.93841c-0.13406,0.04469 -0.29046,0.05586 -0.46921,0.03351c-0.17875,-0.02234 -0.35749,-0.03351 -0.53624,-0.03351h-13.40592c-0.6703,0 -1.26239,-0.03351 -1.77628,-0.10054c-0.51389,-0.06703 -0.86021,-0.34632 -1.03896,-0.83787c-0.17875,-0.35749 -0.25695,-0.87138 -0.2346,-1.54168c0.02234,-0.6703 0.03351,-1.27356 0.03351,-1.8098v-39.61448c0,-0.53624 -0.01117,-1.10599 -0.03351,-1.70925c-0.02234,-0.60327 0.0782,-1.08364 0.30163,-1.44114c0.17875,-0.3128 0.51389,-0.51389 1.00544,-0.60327c0.08937,-0.04469 0.17875,-0.05586 0.26812,-0.03351c0.08937,0.02234 0.17875,0.01117 0.26812,-0.03351h14.54542c0.22343,0 0.43569,-0.01117 0.63678,-0.03351c0.20109,-0.02234 0.39101,-0.01117 0.56975,0.03351c0.22343,0.08937 0.45804,0.11172 0.70381,0.06703c0.24578,-0.04469 0.48038,-0.04469 0.70381,0c0.22343,0.04469 0.46921,0.06703 0.73733,0.06703c0.26812,0 0.51389,0.02234 0.73733,0.06703c0.22343,0.04469 0.43569,0.06703 0.63678,0.06703c0.20109,0 0.41335,0.02234 0.63678,0.06703c0.49155,0.08937 0.96076,0.16757 1.40762,0.2346c0.44686,0.06703 0.89373,0.16757 1.34059,0.30163c0.9831,0.3128 1.92151,0.61444 2.81524,0.9049c0.89373,0.29046 1.72043,0.68147 2.48009,1.17302c0.62561,0.35749 1.18419,0.71498 1.67574,1.07247c0.13406,0.08937 0.26812,0.18992 0.40218,0.30163c0.13406,0.11172 0.26812,0.21226 0.40218,0.30163c0.26812,0.22343 0.51389,0.44686 0.73733,0.6703c0.22343,0.22343 0.44686,0.44686 0.6703,0.6703c0.22343,0.22343 0.40218,0.37983 0.53624,0.46921c0.17875,0.26812 0.36866,0.51389 0.56975,0.73733c0.20109,0.22343 0.39101,0.46921 0.56975,0.73733c0.22343,0.26812 0.41335,0.54741 0.56975,0.83787c0.1564,0.29046 0.34632,0.59209 0.56975,0.9049c0.08937,0.17875 0.1564,0.33515 0.20109,0.46921c0.04469,0.13406 0.11172,0.29046 0.20109,0.46921c0.17875,0.35749 0.33515,0.70381 0.46921,1.03896c0.13406,0.33515 0.29046,0.68147 0.46921,1.03896c0.17875,0.49155 0.32398,0.99427 0.43569,1.50817c0.11172,0.51389 0.2346,1.01662 0.36866,1.50817c0.08937,0.26812 0.13406,0.52507 0.13406,0.77084c0,0.24578 0.04469,0.50272 0.13406,0.77084c0.22343,0.80435 0.34632,1.68691 0.36866,2.64767c0.02234,0.96076 0.03351,1.91034 0.03351,2.84876zM99.60221,332.344c0.08937,-0.44686 0.13406,-0.92724 0.13406,-1.44114c0,-0.51389 0,-1.01662 0,-1.50817c0,-0.35749 0.01117,-0.70381 0.03351,-1.03896c0.02234,-0.33515 -0.01117,-0.65912 -0.10054,-0.97193c0,-0.13406 -0.01117,-0.26812 -0.03351,-0.40218c-0.02234,-0.13406 -0.03351,-0.29046 -0.03351,-0.46921c-0.08937,-0.49155 -0.14523,-0.9831 -0.16757,-1.47465c-0.02234,-0.49155 -0.10054,-0.9831 -0.2346,-1.47465c-0.08937,-0.35749 -0.16757,-0.70381 -0.2346,-1.03896c-0.06703,-0.33515 -0.14523,-0.68147 -0.2346,-1.03896c-0.49155,-1.60871 -1.11716,-3.01633 -1.87683,-4.22286c-1.25122,-2.01089 -3.1057,-3.53022 -5.56346,-4.55801c-0.40218,-0.22343 -0.8267,-0.39101 -1.27356,-0.50272c-0.44686,-0.11172 -0.91607,-0.2346 -1.40762,-0.36866c-0.49155,-0.13406 -0.99427,-0.21226 -1.50817,-0.2346c-0.51389,-0.02234 -1.01662,-0.0782 -1.50817,-0.16757h-1.40762c-0.13406,-0.04469 -0.29046,-0.06703 -0.46921,-0.06703c-0.17875,0 -0.35749,0 -0.53624,0h-8.17761c-0.08937,0.04469 -0.20109,0.05586 -0.33515,0.03351c-0.13406,-0.02234 -0.24578,-0.01117 -0.33515,0.03351c-0.22343,0.08937 -0.43569,0.17875 -0.63678,0.26812c-0.20109,0.08937 -0.34632,0.22343 -0.43569,0.40218c-0.08937,0.17875 -0.17875,0.49155 -0.26812,0.93841v0.53624c-0.04469,0.17875 -0.06703,0.37983 -0.06703,0.60327c0,0.22343 0,0.42452 0,0.60327v30.43143c0,0.22343 0,0.43569 0,0.63678c0,0.20109 0.02234,0.39101 0.06703,0.56975v0.53624c0.08937,0.44686 0.17875,0.75967 0.26812,0.93841c0.35749,0.53624 1.02779,0.79318 2.01089,0.77084c0.9831,-0.02234 1.92151,-0.03351 2.81524,-0.03351h3.88772c0.3128,0 0.64795,0.01117 1.00544,0.03351c0.35749,0.02234 0.6703,-0.01117 0.93841,-0.10054h0.73733c0.22343,-0.04469 0.46921,-0.05586 0.73733,-0.03351c0.26812,0.02234 0.53624,0.01117 0.80435,-0.03351c0.26812,-0.08937 0.53624,-0.14523 0.80435,-0.16757c0.26812,-0.02234 0.55858,-0.0782 0.87138,-0.16757c0.49155,-0.13406 0.97193,-0.26812 1.44114,-0.40218c0.46921,-0.13406 0.94959,-0.3128 1.44114,-0.53624c1.6534,-0.71498 3.07219,-1.68691 4.25638,-2.91579c1.18419,-1.22888 2.15612,-2.69235 2.91579,-4.39044c0.22343,-0.49155 0.41335,-1.01662 0.56975,-1.5752c0.1564,-0.55858 0.32398,-1.12833 0.50272,-1.70925c0.13406,-0.49155 0.2346,-1.01662 0.30163,-1.5752c0.06703,-0.55858 0.14523,-1.10599 0.2346,-1.64222c0.04469,-0.22343 0.06703,-0.41335 0.06703,-0.56975c0,-0.1564 0,-0.32398 0,-0.50272z" data-paper-data="{&quot;glyphName&quot;:&quot;D&quot;,&quot;glyphIndex&quot;:0,&quot;firstGlyphOfWord&quot;:true,&quot;word&quot;:1}" fill="#ff4400" id="element-id-49336"></path><path d="M115.68931,306.13544h21.91867h5.76454c0.49155,0 0.9831,-0.01117 1.47465,-0.03351c0.49155,-0.02234 0.89373,0.0782 1.20653,0.30163c0.13406,0.08937 0.24578,0.20109 0.33515,0.33515c0.08937,0.13406 0.17875,0.26812 0.26812,0.40218c0.08937,0.3128 0.13406,0.81553 0.13406,1.50817c0,0.69264 -0.04469,1.2177 -0.13406,1.5752c-0.17875,0.62561 -0.55858,0.97193 -1.1395,1.03896c-0.58092,0.06703 -1.27356,0.10054 -2.07792,0.10054h-6.70296h-11.26097c-0.71498,0 -1.55285,-0.01117 -2.51361,-0.03351c-0.96076,-0.02234 -1.66457,0.10054 -2.11143,0.36866c-0.44686,0.26812 -0.68147,0.73733 -0.70381,1.40762c-0.02234,0.6703 -0.03351,1.36293 -0.03351,2.07792v6.83702c0,0.49155 -0.01117,1.07247 -0.03351,1.74277c-0.02234,0.6703 0.01117,1.20653 0.10054,1.60871c0.13406,0.53624 0.40218,0.89373 0.80435,1.07247c0.17875,0.08937 0.49155,0.17875 0.93841,0.26812h0.6703c0.17875,0.04469 0.36866,0.05586 0.56975,0.03351c0.20109,-0.02234 0.41335,-0.03351 0.63678,-0.03351h2.27901h13.1378c0.40218,0 0.84904,-0.01117 1.34059,-0.03351c0.49155,-0.02234 0.99427,-0.02234 1.50817,0c0.51389,0.02234 0.9831,0.06703 1.40762,0.13406c0.42452,0.06703 0.7485,0.16757 0.97193,0.30163c0.13406,0.08937 0.24578,0.29046 0.33515,0.60327c0.08937,0.3128 0.1564,0.64795 0.20109,1.00544c0.04469,0.35749 0.05586,0.72615 0.03351,1.10599c-0.02234,0.37983 -0.0782,0.70381 -0.16757,0.97193c-0.08937,0.40218 -0.29046,0.69264 -0.60327,0.87138c-0.08937,0.08937 -0.21226,0.14523 -0.36866,0.16757c-0.1564,0.02234 -0.30163,0.05586 -0.43569,0.10054h-0.40218c-0.22343,0.04469 -0.44686,0.05586 -0.6703,0.03351c-0.22343,-0.02234 -0.44686,-0.03351 -0.6703,-0.03351h-2.48009h-14.14324c-0.53624,0 -1.0613,-0.01117 -1.5752,-0.03351c-0.51389,-0.02234 -0.99427,0 -1.44114,0.06703c-0.44686,0.06703 -0.83787,0.18992 -1.17302,0.36866c-0.33515,0.17875 -0.56975,0.49155 -0.70381,0.93841c-0.08937,0.26812 -0.12289,0.58092 -0.10054,0.93841c0.02234,0.35749 0.03351,0.71498 0.03351,1.07247v3.75366v6.36781c0,0.62561 0.02234,1.19536 0.06703,1.70925c0.04469,0.51389 0.22343,0.88256 0.53624,1.10599c0.3128,0.22343 0.6703,0.34632 1.07247,0.36866c0.40218,0.02234 0.84904,0.03351 1.34059,0.03351h4.28989h12.40047h3.82069c0.35749,0 0.71498,-0.01117 1.07247,-0.03351c0.35749,-0.02234 0.6703,0.01117 0.93841,0.10054c0.53624,0.17875 0.89373,0.42452 1.07247,0.73733c0.08937,0.13406 0.1564,0.35749 0.20109,0.6703c0.04469,0.3128 0.0782,0.63678 0.10054,0.97193c0.02234,0.33515 0.01117,0.6703 -0.03351,1.00544c-0.04469,0.33515 -0.08937,0.59209 -0.13406,0.77084c-0.17875,0.35749 -0.37983,0.60327 -0.60327,0.73733c-0.26812,0.17875 -0.61444,0.26812 -1.03896,0.26812c-0.42452,0 -0.83787,0 -1.24005,0h-4.69207h-17.82987h-4.69207c-0.62561,0 -1.16185,-0.03351 -1.60871,-0.10054c-0.44686,-0.06703 -0.78201,-0.27929 -1.00544,-0.63678c-0.17875,-0.26812 -0.26812,-0.61444 -0.26812,-1.03896c0,-0.42452 0,-0.83787 0,-1.24005v-4.69207v-17.96393v-15.01463v-4.15583c0,-0.40218 0,-0.80435 0,-1.20653c0,-0.40218 0.08937,-0.71498 0.26812,-0.93841c0.17875,-0.3128 0.51389,-0.53624 1.00544,-0.6703c0.08937,-0.04469 0.17875,-0.05586 0.26812,-0.03351c0.08937,0.02234 0.17875,0.01117 0.26812,-0.03351z" data-paper-data="{&quot;glyphName&quot;:&quot;E&quot;,&quot;glyphIndex&quot;:1,&quot;word&quot;:1}" fill="#ff4400" id="element-id-6906"></path><path d="M156.77844,306.13544c0.3128,0 0.6703,-0.01117 1.07247,-0.03351c0.40218,-0.02234 0.79318,-0.02234 1.17302,0c0.37983,0.02234 0.72615,0.0782 1.03896,0.16757c0.3128,0.08937 0.53624,0.22343 0.6703,0.40218c0.26812,0.35749 0.40218,0.8267 0.40218,1.40762c0,0.58092 0,1.18419 0,1.8098v7.03811v21.5165v6.16672c0,0.49155 0,1.02779 0,1.60871c0,0.58092 0.06703,1.05013 0.20109,1.40762c0.13406,0.3128 0.37983,0.58092 0.73733,0.80435c0.22343,0.08937 0.51389,0.14523 0.87138,0.16757c0.35749,0.02234 0.71498,0.03351 1.07247,0.03351h3.41851h12.06532h3.75366c0.3128,0 0.63678,-0.01117 0.97193,-0.03351c0.33515,-0.02234 0.63678,0.01117 0.9049,0.10054c0.58092,0.17875 0.96076,0.42452 1.1395,0.73733c0.04469,0.13406 0.08937,0.35749 0.13406,0.6703c0.04469,0.3128 0.0782,0.63678 0.10054,0.97193c0.02234,0.33515 0.01117,0.6703 -0.03351,1.00544c-0.04469,0.33515 -0.08937,0.59209 -0.13406,0.77084c-0.08937,0.3128 -0.29046,0.55858 -0.60327,0.73733c-0.22343,0.17875 -0.54741,0.26812 -0.97193,0.26812c-0.42452,0 -0.83787,0 -1.24005,0h-4.42395h-16.95848h-4.35692c-0.62561,0 -1.16185,-0.03351 -1.60871,-0.10054c-0.44686,-0.06703 -0.78201,-0.27929 -1.00544,-0.63678c-0.17875,-0.26812 -0.26812,-0.61444 -0.26812,-1.03896c0,-0.42452 0,-0.83787 0,-1.24005v-4.82613v-18.29908v-14.54542v-4.15583c0,-0.40218 0.01117,-0.80435 0.03351,-1.20653c0.02234,-0.40218 0.10054,-0.71498 0.2346,-0.93841c0.17875,-0.26812 0.51389,-0.49155 1.00544,-0.6703c0.08937,-0.04469 0.18992,-0.05586 0.30163,-0.03351c0.11172,0.02234 0.21226,0.01117 0.30163,-0.03351z" data-paper-data="{&quot;glyphName&quot;:&quot;L&quot;,&quot;glyphIndex&quot;:2,&quot;word&quot;:1}" fill="#ff4400" id="element-id-60770"></path><path d="M194.31501,306.2695c0.3128,0 0.6703,-0.01117 1.07247,-0.03351c0.40218,-0.02234 0.79318,-0.02234 1.17302,0c0.37983,0.02234 0.72615,0.0782 1.03896,0.16757c0.3128,0.08937 0.53624,0.22343 0.6703,0.40218c0.26812,0.3128 0.41335,0.7485 0.43569,1.30708c0.02234,0.55858 0.03351,1.12833 0.03351,1.70925v6.50187v25.87342v7.84246c0,0.58092 0,1.19536 0,1.84331c0,0.64795 -0.11172,1.15067 -0.33515,1.50817c-0.17875,0.22343 -0.39101,0.35749 -0.63678,0.40218c-0.24578,0.04469 -0.54741,0.11172 -0.9049,0.20109h-1.27356c-0.62561,0 -1.20653,-0.02234 -1.74277,-0.06703c-0.53624,-0.04469 -0.91607,-0.26812 -1.1395,-0.6703c-0.17875,-0.26812 -0.26812,-0.63678 -0.26812,-1.10599c0,-0.46921 0,-0.94959 0,-1.44114v-5.36237v-28.01836v-7.23919c0,-0.49155 -0.01117,-1.03896 -0.03351,-1.64222c-0.02234,-0.60327 0.0782,-1.08364 0.30163,-1.44114c0.17875,-0.3128 0.53624,-0.53624 1.07247,-0.6703c0.08937,-0.04469 0.17875,-0.05586 0.26812,-0.03351c0.08937,0.02234 0.17875,0.01117 0.26812,-0.03351z" data-paper-data="{&quot;glyphName&quot;:&quot;I&quot;,&quot;glyphIndex&quot;:3,&quot;word&quot;:1}" fill="#ff4400" id="element-id-63320"></path><path d="M206.44736,306.20247c0.71498,0 1.49699,-0.01117 2.34604,-0.03351c0.84904,-0.02234 1.49699,0.10054 1.94386,0.36866c0.40218,0.26812 0.68147,0.69264 0.83787,1.27356c0.1564,0.58092 0.32398,1.11716 0.50272,1.60871c0.35749,0.89373 0.6703,1.79863 0.93841,2.7147c0.26812,0.91607 0.58092,1.82097 0.93841,2.7147c0.08937,0.22343 0.1564,0.44686 0.20109,0.6703c0.04469,0.22343 0.08937,0.44686 0.13406,0.6703c0.3128,0.75967 0.59209,1.55285 0.83787,2.37955c0.24578,0.8267 0.50272,1.66457 0.77084,2.51361c0.62561,1.83214 1.24005,3.64194 1.84331,5.4294c0.60327,1.78746 1.2177,3.59725 1.84331,5.4294c0.3128,0.89373 0.59209,1.79863 0.83787,2.7147c0.24578,0.91607 0.54741,1.82097 0.9049,2.7147c0.08937,0.22343 0.16757,0.46921 0.2346,0.73733c0.06703,0.26812 0.14523,0.53624 0.2346,0.80435c0.49155,1.29591 0.93841,2.6365 1.34059,4.02177c0.17875,0.44686 0.33515,0.9049 0.46921,1.37411c0.13406,0.46921 0.33515,0.88256 0.60327,1.24005c0.08937,0.08937 0.24578,0.22343 0.46921,0.40218c0.53624,-0.04469 0.87138,-0.27929 1.00544,-0.70381c0.13406,-0.42452 0.29046,-0.83787 0.46921,-1.24005c0.49155,-1.16185 0.89373,-2.34604 1.20653,-3.55257c0.3128,-1.20653 0.69264,-2.39072 1.1395,-3.55257c0.26812,-0.71498 0.50272,-1.42996 0.70381,-2.14495c0.20109,-0.71498 0.43569,-1.42996 0.70381,-2.14495c0.22343,-0.53624 0.41335,-1.08364 0.56975,-1.64222c0.1564,-0.55858 0.34632,-1.10599 0.56975,-1.64222c0.6703,-1.87683 1.29591,-3.776 1.87683,-5.69751c0.58092,-1.92151 1.22888,-3.82069 1.94386,-5.69751c0.08937,-0.17875 0.13406,-0.34632 0.13406,-0.50272c0,-0.1564 0.04469,-0.32398 0.13406,-0.50272c0.26812,-0.6703 0.51389,-1.36293 0.73733,-2.07792c0.22343,-0.71498 0.44686,-1.40762 0.6703,-2.07792c0.26812,-0.6703 0.50272,-1.35176 0.70381,-2.0444c0.20109,-0.69264 0.43569,-1.39645 0.70381,-2.11143c0.13406,-0.40218 0.27929,-0.79318 0.43569,-1.17302c0.1564,-0.37983 0.41335,-0.68147 0.77084,-0.9049c0.26812,-0.22343 0.63678,-0.33515 1.10599,-0.33515c0.46921,0 0.94959,0 1.44114,0h1.47465c0.35749,0.08937 0.6703,0.16757 0.93841,0.2346c0.26812,0.06703 0.44686,0.27929 0.53624,0.63678c0,0.08937 0.01117,0.18992 0.03351,0.30163c0.02234,0.11172 0.01117,0.21226 -0.03351,0.30163c-0.08937,0.44686 -0.21226,0.88256 -0.36866,1.30708c-0.1564,0.42452 -0.30163,0.81553 -0.43569,1.17302c-0.17875,0.35749 -0.32398,0.72615 -0.43569,1.10599c-0.11172,0.37983 -0.2346,0.7485 -0.36866,1.10599c-0.26812,0.62561 -0.50272,1.28473 -0.70381,1.97737c-0.20109,0.69264 -0.43569,1.35176 -0.70381,1.97737c-0.08937,0.17875 -0.13406,0.33515 -0.13406,0.46921c0,0.13406 -0.04469,0.29046 -0.13406,0.46921c-0.35749,0.75967 -0.65912,1.56402 -0.9049,2.41306c-0.24578,0.84904 -0.54741,1.6534 -0.9049,2.41306c-0.08937,0.17875 -0.13406,0.34632 -0.13406,0.50272c0,0.1564 -0.04469,0.30163 -0.13406,0.43569c-0.22343,0.58092 -0.43569,1.17302 -0.63678,1.77628c-0.20109,0.60327 -0.41335,1.19536 -0.63678,1.77628c-0.08937,0.13406 -0.14523,0.27929 -0.16757,0.43569c-0.02234,0.1564 -0.0782,0.32398 -0.16757,0.50272c-0.6703,1.69808 -1.28473,3.41851 -1.84331,5.16128c-0.55858,1.74277 -1.17302,3.46319 -1.84331,5.16128l-0.20109,0.60327c-0.17875,0.49155 -0.34632,0.97193 -0.50272,1.44114c-0.1564,0.46921 -0.32398,0.94959 -0.50272,1.44114c-0.22343,0.53624 -0.42452,1.08364 -0.60327,1.64222c-0.17875,0.55858 -0.37983,1.10599 -0.60327,1.64222c-0.08937,0.26812 -0.17875,0.53624 -0.26812,0.80435c-0.08937,0.26812 -0.17875,0.53624 -0.26812,0.80435c-0.26812,0.6703 -0.51389,1.36293 -0.73733,2.07792c-0.22343,0.71498 -0.46921,1.38528 -0.73733,2.01089c-0.22343,0.58092 -0.43569,1.19536 -0.63678,1.84331c-0.20109,0.64795 -0.52507,1.12833 -0.97193,1.44114c-0.17875,0.08937 -0.37983,0.1564 -0.60327,0.20109c-0.22343,0.04469 -0.46921,0.08937 -0.73733,0.13406h-1.87683c-0.53624,0 -1.11716,0.01117 -1.74277,0.03351c-0.62561,0.02234 -1.11716,-0.0782 -1.47465,-0.30163c-0.40218,-0.22343 -0.6703,-0.54741 -0.80435,-0.97193c-0.13406,-0.42452 -0.3128,-0.88256 -0.53624,-1.37411c-0.26812,-0.6703 -0.51389,-1.37411 -0.73733,-2.11143c-0.22343,-0.73733 -0.49155,-1.46348 -0.80435,-2.17846c-0.08937,-0.17875 -0.14523,-0.35749 -0.16757,-0.53624c-0.02234,-0.17875 -0.0782,-0.35749 -0.16757,-0.53624c-0.35749,-0.89373 -0.68147,-1.79863 -0.97193,-2.7147c-0.29046,-0.91607 -0.61444,-1.79863 -0.97193,-2.64767c-0.08937,-0.22343 -0.14523,-0.42452 -0.16757,-0.60327c-0.02234,-0.17875 -0.0782,-0.35749 -0.16757,-0.53624c-0.22343,-0.62561 -0.44686,-1.24005 -0.6703,-1.84331c-0.22343,-0.60327 -0.44686,-1.2177 -0.6703,-1.84331c-0.08937,-0.17875 -0.14523,-0.35749 -0.16757,-0.53624c-0.02234,-0.17875 -0.0782,-0.35749 -0.16757,-0.53624c-0.22343,-0.58092 -0.43569,-1.17302 -0.63678,-1.77628c-0.20109,-0.60327 -0.41335,-1.2177 -0.63678,-1.84331c-0.22343,-0.49155 -0.40218,-0.99427 -0.53624,-1.50817c-0.13406,-0.51389 -0.3128,-1.01662 -0.53624,-1.50817c-0.49155,-1.25122 -0.93841,-2.53595 -1.34059,-3.8542c-0.40218,-1.31825 -0.87138,-2.60298 -1.40762,-3.8542c-0.17875,-0.40218 -0.32398,-0.81553 -0.43569,-1.24005c-0.11172,-0.42452 -0.2346,-0.81553 -0.36866,-1.17302c-0.13406,-0.26812 -0.2346,-0.54741 -0.30163,-0.83787c-0.06703,-0.29046 -0.16757,-0.56975 -0.30163,-0.83787c-0.40218,-1.02779 -0.77084,-2.07792 -1.10599,-3.15039c-0.33515,-1.07247 -0.70381,-2.1226 -1.10599,-3.15039c-0.08937,-0.3128 -0.18992,-0.62561 -0.30163,-0.93841c-0.11172,-0.3128 -0.21226,-0.64795 -0.30163,-1.00544c-0.17875,-0.44686 -0.20109,-0.8267 -0.06703,-1.1395c0.13406,-0.3128 0.44686,-0.51389 0.93841,-0.60327c0.08937,-0.04469 0.17875,-0.05586 0.26812,-0.03351c0.08937,0.02234 0.17875,0.01117 0.26812,-0.03351z" data-paper-data="{&quot;glyphName&quot;:&quot;V&quot;,&quot;glyphIndex&quot;:4,&quot;word&quot;:1}" fill="#ff4400" id="element-id-25949"></path><path d="M252.22856,306.13544h21.91867h5.76454c0.49155,0 0.9831,-0.01117 1.47465,-0.03351c0.49155,-0.02234 0.89373,0.0782 1.20653,0.30163c0.13406,0.08937 0.24578,0.20109 0.33515,0.33515c0.08937,0.13406 0.17875,0.26812 0.26812,0.40218c0.08937,0.3128 0.13406,0.81553 0.13406,1.50817c0,0.69264 -0.04469,1.2177 -0.13406,1.5752c-0.17875,0.62561 -0.55858,0.97193 -1.1395,1.03896c-0.58092,0.06703 -1.27356,0.10054 -2.07792,0.10054h-6.70296h-11.26097c-0.71498,0 -1.55285,-0.01117 -2.51361,-0.03351c-0.96076,-0.02234 -1.66457,0.10054 -2.11143,0.36866c-0.44686,0.26812 -0.68147,0.73733 -0.70381,1.40762c-0.02234,0.6703 -0.03351,1.36293 -0.03351,2.07792v6.83702c0,0.49155 -0.01117,1.07247 -0.03351,1.74277c-0.02234,0.6703 0.01117,1.20653 0.10054,1.60871c0.13406,0.53624 0.40218,0.89373 0.80435,1.07247c0.17875,0.08937 0.49155,0.17875 0.93841,0.26812h0.6703c0.17875,0.04469 0.36866,0.05586 0.56975,0.03351c0.20109,-0.02234 0.41335,-0.03351 0.63678,-0.03351h2.27901h13.1378c0.40218,0 0.84904,-0.01117 1.34059,-0.03351c0.49155,-0.02234 0.99427,-0.02234 1.50817,0c0.51389,0.02234 0.9831,0.06703 1.40762,0.13406c0.42452,0.06703 0.7485,0.16757 0.97193,0.30163c0.13406,0.08937 0.24578,0.29046 0.33515,0.60327c0.08937,0.3128 0.1564,0.64795 0.20109,1.00544c0.04469,0.35749 0.05586,0.72615 0.03351,1.10599c-0.02234,0.37983 -0.0782,0.70381 -0.16757,0.97193c-0.08937,0.40218 -0.29046,0.69264 -0.60327,0.87138c-0.08937,0.08937 -0.21226,0.14523 -0.36866,0.16757c-0.1564,0.02234 -0.30163,0.05586 -0.43569,0.10054h-0.40218c-0.22343,0.04469 -0.44686,0.05586 -0.6703,0.03351c-0.22343,-0.02234 -0.44686,-0.03351 -0.6703,-0.03351h-2.48009h-14.14324c-0.53624,0 -1.0613,-0.01117 -1.5752,-0.03351c-0.51389,-0.02234 -0.99427,0 -1.44114,0.06703c-0.44686,0.06703 -0.83787,0.18992 -1.17302,0.36866c-0.33515,0.17875 -0.56975,0.49155 -0.70381,0.93841c-0.08937,0.26812 -0.12289,0.58092 -0.10054,0.93841c0.02234,0.35749 0.03351,0.71498 0.03351,1.07247v3.75366v6.36781c0,0.62561 0.02234,1.19536 0.06703,1.70925c0.04469,0.51389 0.22343,0.88256 0.53624,1.10599c0.3128,0.22343 0.6703,0.34632 1.07247,0.36866c0.40218,0.02234 0.84904,0.03351 1.34059,0.03351h4.28989h12.40047h3.82069c0.35749,0 0.71498,-0.01117 1.07247,-0.03351c0.35749,-0.02234 0.6703,0.01117 0.93841,0.10054c0.53624,0.17875 0.89373,0.42452 1.07247,0.73733c0.08937,0.13406 0.1564,0.35749 0.20109,0.6703c0.04469,0.3128 0.0782,0.63678 0.10054,0.97193c0.02234,0.33515 0.01117,0.6703 -0.03351,1.00544c-0.04469,0.33515 -0.08937,0.59209 -0.13406,0.77084c-0.17875,0.35749 -0.37983,0.60327 -0.60327,0.73733c-0.26812,0.17875 -0.61444,0.26812 -1.03896,0.26812c-0.42452,0 -0.83787,0 -1.24005,0h-4.69207h-17.82987h-4.69207c-0.62561,0 -1.16185,-0.03351 -1.60871,-0.10054c-0.44686,-0.06703 -0.78201,-0.27929 -1.00544,-0.63678c-0.17875,-0.26812 -0.26812,-0.61444 -0.26812,-1.03896c0,-0.42452 0,-0.83787 0,-1.24005v-4.69207v-17.96393v-15.01463v-4.15583c0,-0.40218 0,-0.80435 0,-1.20653c0,-0.40218 0.08937,-0.71498 0.26812,-0.93841c0.17875,-0.3128 0.51389,-0.53624 1.00544,-0.6703c0.08937,-0.04469 0.17875,-0.05586 0.26812,-0.03351c0.08937,0.02234 0.17875,0.01117 0.26812,-0.03351z" data-paper-data="{&quot;glyphName&quot;:&quot;E&quot;,&quot;glyphIndex&quot;:5,&quot;word&quot;:1}" fill="#ff4400" id="element-id-99183"></path><path d="M328.9104,352.18476c0.22343,0.58092 0.13406,1.02779 -0.26812,1.34059c-0.22343,0.13406 -0.50272,0.21226 -0.83787,0.2346c-0.33515,0.02234 -0.68147,0.03351 -1.03896,0.03351c-0.71498,0 -1.42996,0 -2.14495,0c-0.71498,0 -1.27356,-0.1564 -1.67574,-0.46921c-0.35749,-0.22343 -0.59209,-0.56975 -0.70381,-1.03896c-0.11172,-0.46921 -0.21226,-0.94959 -0.30163,-1.44114c-0.04469,-0.17875 -0.06703,-0.34632 -0.06703,-0.50272c0,-0.1564 0,-0.30163 0,-0.43569c-0.08937,-0.22343 -0.11172,-0.42452 -0.06703,-0.60327c0.04469,-0.17875 0.04469,-0.35749 0,-0.53624c-0.04469,-0.26812 -0.06703,-0.53624 -0.06703,-0.80435c0,-0.26812 0,-0.53624 0,-0.80435l-0.20109,-3.01633c-0.08937,-0.3128 -0.13406,-0.62561 -0.13406,-0.93841c0,-0.3128 -0.04469,-0.64795 -0.13406,-1.00544c-0.22343,-0.80435 -0.39101,-1.60871 -0.50272,-2.41306c-0.11172,-0.80435 -0.32398,-1.56402 -0.63678,-2.27901c-0.84904,-1.87683 -2.25666,-3.12805 -4.22286,-3.75366c-0.58092,-0.22343 -1.2177,-0.34632 -1.91034,-0.36866c-0.69264,-0.02234 -1.41879,-0.03351 -2.17846,-0.03351h-12.33344c-0.3128,0.08937 -0.59209,0.16757 -0.83787,0.2346c-0.24578,0.06703 -0.45804,0.21226 -0.63678,0.43569c-0.3128,0.44686 -0.45804,1.17302 -0.43569,2.17846c0.02234,1.00544 0.03351,1.888 0.03351,2.64767v9.71929c0,0.62561 0.02234,1.39645 0.06703,2.31252c0.04469,0.91607 -0.04469,1.59754 -0.26812,2.0444c-0.08937,0.3128 -0.26812,0.51389 -0.53624,0.60327c-0.17875,0.08937 -0.34632,0.13406 -0.50272,0.13406c-0.1564,0 -0.34632,0.04469 -0.56975,0.13406c-0.17875,0.04469 -0.37983,0.05586 -0.60327,0.03351c-0.22343,-0.02234 -0.44686,-0.03351 -0.6703,-0.03351c-0.49155,0 -0.97193,-0.01117 -1.44114,-0.03351c-0.46921,-0.02234 -0.86021,-0.14523 -1.17302,-0.36866c-0.35749,-0.22343 -0.53624,-0.63678 -0.53624,-1.24005c0,-0.60327 0,-1.19536 0,-1.77628v-40.75398c0,-0.49155 -0.01117,-1.00544 -0.03351,-1.54168c-0.02234,-0.53624 0.0782,-0.96076 0.30163,-1.27356c0.17875,-0.26812 0.51389,-0.49155 1.00544,-0.6703c0.08937,-0.04469 0.17875,-0.05586 0.26812,-0.03351c0.08937,0.02234 0.17875,0.01117 0.26812,-0.03351h19.43858c0.3128,0 0.64795,-0.01117 1.00544,-0.03351c0.35749,-0.02234 0.6703,-0.01117 0.93841,0.03351h0.73733c0.26812,0.04469 0.53624,0.0782 0.80435,0.10054c0.26812,0.02234 0.55858,0.05586 0.87138,0.10054c0.35749,0.08937 0.72615,0.1564 1.10599,0.20109c0.37983,0.04469 0.7485,0.11172 1.10599,0.20109c0.84904,0.26812 1.63105,0.55858 2.34604,0.87138c0.71498,0.3128 1.38528,0.69264 2.01089,1.1395c1.11716,0.75967 2.02206,1.68691 2.7147,2.78173c0.69264,1.09482 1.26239,2.37955 1.70925,3.8542c0.08937,0.35749 0.14523,0.72615 0.16757,1.10599c0.02234,0.37983 0.0782,0.7485 0.16757,1.10599v0.6703c0.04469,0.22343 0.05586,0.48038 0.03351,0.77084c-0.02234,0.29046 -0.05586,0.54741 -0.10054,0.77084v0.73733c-0.08937,0.35749 -0.14523,0.69264 -0.16757,1.00544c-0.02234,0.3128 -0.0782,0.62561 -0.16757,0.93841c-0.22343,0.6703 -0.43569,1.30708 -0.63678,1.91034c-0.20109,0.60327 -0.48038,1.17302 -0.83787,1.70925c-0.13406,0.22343 -0.27929,0.42452 -0.43569,0.60327c-0.1564,0.17875 -0.30163,0.37983 -0.43569,0.60327c-0.04469,0.04469 -0.08937,0.0782 -0.13406,0.10054c-0.04469,0.02234 -0.08937,0.05586 -0.13406,0.10054c-0.08937,0.08937 -0.18992,0.20109 -0.30163,0.33515c-0.11172,0.13406 -0.21226,0.24578 -0.30163,0.33515c-0.35749,0.26812 -0.69264,0.52507 -1.00544,0.77084c-0.3128,0.24578 -0.64795,0.48038 -1.00544,0.70381c-0.22343,0.13406 -0.42452,0.27929 -0.60327,0.43569c-0.17875,0.1564 -0.29046,0.36866 -0.33515,0.63678c-0.04469,0.26812 0.05586,0.49155 0.30163,0.6703c0.24578,0.17875 0.45804,0.3128 0.63678,0.40218c0.49155,0.3128 0.94959,0.64795 1.37411,1.00544c0.42452,0.35749 0.79318,0.78201 1.10599,1.27356c0.49155,0.62561 0.84904,1.32942 1.07247,2.11143c0.22343,0.78201 0.44686,1.61988 0.6703,2.51361c0.04469,0.35749 0.08937,0.70381 0.13406,1.03896c0.04469,0.33515 0.08937,0.68147 0.13406,1.03896c0.08937,0.3128 0.11172,0.62561 0.06703,0.93841c-0.04469,0.3128 -0.02234,0.62561 0.06703,0.93841v0.60327c0.08937,0.3128 0.11172,0.64795 0.06703,1.00544c-0.04469,0.35749 -0.02234,0.71498 0.06703,1.07247c0.04469,0.17875 0.05586,0.34632 0.03351,0.50272c-0.02234,0.1564 -0.01117,0.34632 0.03351,0.56975c0.08937,0.44686 0.1564,0.9049 0.20109,1.37411c0.04469,0.46921 0.13406,0.9049 0.26812,1.30708c0.08937,0.26812 0.14523,0.52507 0.16757,0.77084c0.02234,0.24578 0.0782,0.50272 0.16757,0.77084zM320.79982,324.36748c0.3128,-0.49155 0.54741,-1.00544 0.70381,-1.54168c0.1564,-0.53624 0.30163,-1.11716 0.43569,-1.74277v-0.60327c0.13406,-0.62561 0.1564,-1.30708 0.06703,-2.0444c-0.08937,-0.73733 -0.22343,-1.35176 -0.40218,-1.84331c-0.71498,-2.23432 -2.1226,-3.776 -4.22286,-4.62504c-0.89373,-0.35749 -1.93269,-0.55858 -3.11688,-0.60327c-1.18419,-0.04469 -2.40189,-0.06703 -3.65311,-0.06703h-11.05988c-0.08937,0.04469 -0.18992,0.06703 -0.30163,0.06703c-0.11172,0 -0.2346,0.02234 -0.36866,0.06703c-0.53624,0.13406 -0.89373,0.42452 -1.07247,0.87138c-0.17875,0.40218 -0.25695,0.96076 -0.2346,1.67574c0.02234,0.71498 0.03351,1.36293 0.03351,1.94386v7.7084c0,0.6703 -0.01117,1.37411 -0.03351,2.11143c-0.02234,0.73733 0.12289,1.30708 0.43569,1.70925c0.22343,0.3128 0.55858,0.50272 1.00544,0.56975c0.44686,0.06703 0.93841,0.10054 1.47465,0.10054h4.15583c1.74277,0 3.44085,0.01117 5.09425,0.03351c1.6534,0.02234 3.18391,-0.06703 4.59153,-0.26812c1.40762,-0.20109 2.67001,-0.56975 3.78717,-1.10599c1.11716,-0.53624 2.01089,-1.34059 2.68118,-2.41306z" data-paper-data="{&quot;glyphName&quot;:&quot;R&quot;,&quot;glyphIndex&quot;:6,&quot;word&quot;:1}" fill="#ff4400" id="element-id-14647"></path><path d="M334.74198,306.13544c0.6703,0 1.49699,-0.02234 2.48009,-0.06703c0.9831,-0.04469 1.72043,0.04469 2.21198,0.26812c0.35749,0.17875 0.63678,0.40218 0.83787,0.6703c0.20109,0.26812 0.41335,0.55858 0.63678,0.87138c0.26812,0.44686 0.53624,0.89373 0.80435,1.34059c0.26812,0.44686 0.55858,0.89373 0.87138,1.34059c1.25122,1.9662 2.49127,3.91006 3.72014,5.83157c1.22888,1.92151 2.44658,3.86537 3.65311,5.83157c0.44686,0.71498 0.88256,1.40762 1.30708,2.07792c0.42452,0.6703 0.86021,1.34059 1.30708,2.01089c0.17875,0.3128 0.36866,0.61444 0.56975,0.9049c0.20109,0.29046 0.48038,0.48038 0.83787,0.56975c0.35749,0.08937 0.65912,0.01117 0.9049,-0.2346c0.24578,-0.24578 0.41335,-0.45804 0.50272,-0.63678c0.44686,-0.62561 0.86021,-1.27356 1.24005,-1.94386c0.37983,-0.6703 0.77084,-1.31825 1.17302,-1.94386c1.20653,-1.92151 2.39072,-3.84303 3.55257,-5.76454c1.16185,-1.92151 2.34604,-3.82069 3.55257,-5.69751c0.35749,-0.58092 0.70381,-1.15067 1.03896,-1.70925c0.33515,-0.55858 0.68147,-1.10599 1.03896,-1.64222c0.17875,-0.3128 0.35749,-0.60327 0.53624,-0.87138c0.17875,-0.26812 0.40218,-0.51389 0.6703,-0.73733c0.40218,-0.3128 0.97193,-0.46921 1.70925,-0.46921c0.73733,0 1.48582,0 2.24549,0c0.35749,0 0.71498,0.01117 1.07247,0.03351c0.35749,0.02234 0.64795,0.12289 0.87138,0.30163c0.3128,0.22343 0.39101,0.54741 0.2346,0.97193c-0.1564,0.42452 -0.30163,0.72615 -0.43569,0.9049c-0.35749,0.53624 -0.69264,1.0613 -1.00544,1.5752c-0.3128,0.51389 -0.64795,1.01662 -1.00544,1.50817c-0.22343,0.3128 -0.42452,0.62561 -0.60327,0.93841c-0.17875,0.3128 -0.37983,0.64795 -0.60327,1.00544c-1.56402,2.27901 -3.08336,4.58035 -4.55801,6.90405c-1.47465,2.32369 -2.9493,4.66973 -4.42395,7.03811c-0.49155,0.71498 -0.96076,1.41879 -1.40762,2.11143c-0.44686,0.69264 -0.91607,1.41879 -1.40762,2.17846c-0.3128,0.49155 -0.61444,0.94959 -0.9049,1.37411c-0.29046,0.42452 -0.54741,0.94959 -0.77084,1.5752c-0.08937,0.26812 -0.13406,0.56975 -0.13406,0.9049c0,0.33515 0,0.68147 0,1.03896v2.68118v9.58523c0,0.35749 0.02234,0.73733 0.06703,1.1395c0.04469,0.40218 0.02234,0.78201 -0.06703,1.1395v1.1395c-0.13406,0.80435 -0.44686,1.31825 -0.93841,1.54168c-0.13406,0.08937 -0.26812,0.12289 -0.40218,0.10054c-0.13406,-0.02234 -0.29046,-0.01117 -0.46921,0.03351c-0.17875,0.04469 -0.36866,0.05586 -0.56975,0.03351c-0.20109,-0.02234 -0.41335,-0.03351 -0.63678,-0.03351c-0.53624,0 -1.07247,0 -1.60871,0c-0.53624,0 -0.91607,-0.1564 -1.1395,-0.46921c-0.17875,-0.17875 -0.30163,-0.48038 -0.36866,-0.9049c-0.06703,-0.42452 -0.11172,-0.87138 -0.13406,-1.34059c-0.02234,-0.46921 -0.02234,-0.94959 0,-1.44114c0.02234,-0.49155 0.03351,-0.93841 0.03351,-1.34059v-8.91493v-2.34604c0,-0.22343 0,-0.43569 0,-0.63678c0,-0.20109 -0.02234,-0.39101 -0.06703,-0.56975v-0.87138c-0.22343,-0.75967 -0.50272,-1.39645 -0.83787,-1.91034c-0.33515,-0.51389 -0.68147,-1.0613 -1.03896,-1.64222l-2.61415,-4.02177c-1.51934,-2.27901 -2.99399,-4.54684 -4.42395,-6.8035c-1.42996,-2.25666 -2.90462,-4.5245 -4.42395,-6.8035c-0.58092,-0.89373 -1.15067,-1.75394 -1.70925,-2.58064c-0.55858,-0.8267 -1.12833,-1.68691 -1.70925,-2.58064c-0.3128,-0.40218 -0.53624,-0.8267 -0.6703,-1.27356c-0.08937,-0.3128 -0.06703,-0.53624 0.06703,-0.6703c0.04469,-0.22343 0.16757,-0.35749 0.36866,-0.40218c0.20109,-0.04469 0.41335,-0.11172 0.63678,-0.20109c0.04469,0 0.10054,0.01117 0.16757,0.03351c0.06703,0.02234 0.12289,0.01117 0.16757,-0.03351z" data-paper-data="{&quot;glyphName&quot;:&quot;Y&quot;,&quot;glyphIndex&quot;:7,&quot;lastGlyphOfWord&quot;:true,&quot;word&quot;:1}" fill="#ff4400" id="element-id-95080"></path><path d="M400.9672,306.13544c0.62561,0 1.37411,-0.01117 2.24549,-0.03351c0.87138,-0.02234 1.44114,0.14523 1.70925,0.50272c0.35749,0.40218 0.52507,1.00544 0.50272,1.8098c-0.02234,0.80435 -0.03351,1.56402 -0.03351,2.27901v10.05444v12.4675c0,1.56402 0.02234,3.09453 0.06703,4.59153c0.04469,1.49699 0.26812,2.82641 0.6703,3.98826c0.58092,1.74277 1.40762,3.17273 2.48009,4.28989c1.07247,1.11716 2.43541,2.03323 4.0888,2.74821c0.49155,0.22343 1.00544,0.36866 1.54168,0.43569c0.53624,0.06703 1.07247,0.16757 1.60871,0.30163c0.26812,0.04469 0.54741,0.0782 0.83787,0.10054c0.29046,0.02234 0.56975,0.05586 0.83787,0.10054h0.6703c0.26812,0 0.54741,0.01117 0.83787,0.03351c0.29046,0.02234 0.54741,-0.01117 0.77084,-0.10054c0.22343,-0.04469 0.45804,-0.05586 0.70381,-0.03351c0.24578,0.02234 0.48038,0.01117 0.70381,-0.03351c0.53624,-0.13406 1.05013,-0.24578 1.54168,-0.33515c0.49155,-0.08937 0.9831,-0.24578 1.47465,-0.46921c1.69808,-0.6703 3.0275,-1.54168 3.98826,-2.61415c0.96076,-1.07247 1.7316,-2.50244 2.31252,-4.28989c0.35749,-1.11716 0.56975,-2.37955 0.63678,-3.78717c0.06703,-1.40762 0.10054,-2.84876 0.10054,-4.32341v-10.99285v-11.59612c0,-0.75967 -0.01117,-1.61988 -0.03351,-2.58064c-0.02234,-0.96076 0.14523,-1.64222 0.50272,-2.0444c0.22343,-0.3128 0.63678,-0.46921 1.24005,-0.46921c0.60327,0 1.19536,0 1.77628,0c0.22343,0 0.43569,0.01117 0.63678,0.03351c0.20109,0.02234 0.41335,0.03351 0.63678,0.03351c0.62561,0.13406 1.02779,0.35749 1.20653,0.6703c0.22343,0.35749 0.32398,0.87138 0.30163,1.54168c-0.02234,0.6703 -0.03351,1.27356 -0.03351,1.8098v9.25008v13.94215c0,1.6534 -0.02234,3.28445 -0.06703,4.89316c-0.04469,1.60871 -0.24578,3.06102 -0.60327,4.35692c-0.62561,2.18963 -1.44114,4.05529 -2.44658,5.59697c-1.00544,1.54168 -2.35721,2.84876 -4.05529,3.92123c-0.6703,0.40218 -1.38528,0.75967 -2.14495,1.07247c-0.75967,0.3128 -1.56402,0.60327 -2.41306,0.87138c-0.40218,0.13406 -0.80435,0.2346 -1.20653,0.30163c-0.40218,0.06703 -0.8267,0.14523 -1.27356,0.2346c-0.44686,0.08937 -0.9049,0.13406 -1.37411,0.13406c-0.46921,0 -0.92724,0.04469 -1.37411,0.13406h-0.80435c-0.22343,0.04469 -0.58092,0.06703 -1.07247,0.06703c-0.49155,0 -0.84904,-0.02234 -1.07247,-0.06703h-0.80435c-0.3128,-0.08937 -0.63678,-0.12289 -0.97193,-0.10054c-0.33515,0.02234 -0.65912,-0.01117 -0.97193,-0.10054h-0.53624c-0.35749,-0.08937 -0.70381,-0.1564 -1.03896,-0.20109c-0.33515,-0.04469 -0.68147,-0.11172 -1.03896,-0.20109c-0.75967,-0.22343 -1.50817,-0.43569 -2.24549,-0.63678c-0.73733,-0.20109 -1.44114,-0.45804 -2.11143,-0.77084c-0.3128,-0.13406 -0.61444,-0.29046 -0.9049,-0.46921c-0.29046,-0.17875 -0.59209,-0.37983 -0.9049,-0.60327c-1.34059,-0.84904 -2.45775,-1.85449 -3.35148,-3.01633c-0.89373,-1.16185 -1.6534,-2.52478 -2.27901,-4.0888c-0.26812,-0.6703 -0.46921,-1.36293 -0.60327,-2.07792c-0.13406,-0.71498 -0.29046,-1.45231 -0.46921,-2.21198c-0.04469,-0.35749 -0.0782,-0.70381 -0.10054,-1.03896c-0.02234,-0.33515 -0.05586,-0.68147 -0.10054,-1.03896v-0.6703c-0.08937,-0.35749 -0.11172,-0.72615 -0.06703,-1.10599c0.04469,-0.37983 0.06703,-0.7485 0.06703,-1.10599v-4.35692v-17.49472v-4.55801c0,-0.40218 0,-0.80435 0,-1.20653c0,-0.40218 0.08937,-0.73733 0.26812,-1.00544c0.17875,-0.3128 0.51389,-0.53624 1.00544,-0.6703c0.26812,0 0.44686,-0.02234 0.53624,-0.06703z" data-paper-data="{&quot;glyphName&quot;:&quot;U&quot;,&quot;glyphIndex&quot;:8,&quot;firstGlyphOfWord&quot;:true,&quot;word&quot;:2}" fill="#ff4400" id="element-id-99515"></path><path d="M483.21249,318.80403c0.08937,0.35749 0.13406,0.83787 0.13406,1.44114c0,0.60327 -0.04469,1.0613 -0.13406,1.37411c-0.08937,0.3128 -0.11172,0.60327 -0.06703,0.87138c0.04469,0.26812 0.02234,0.55858 -0.06703,0.87138c-0.08937,0.26812 -0.1564,0.54741 -0.20109,0.83787c-0.04469,0.29046 -0.11172,0.56975 -0.20109,0.83787c-0.08937,0.35749 -0.18992,0.69264 -0.30163,1.00544c-0.11172,0.3128 -0.2346,0.62561 -0.36866,0.93841c-0.08937,0.13406 -0.14523,0.25695 -0.16757,0.36866c-0.02234,0.11172 -0.0782,0.21226 -0.16757,0.30163c-0.49155,0.89373 -1.02779,1.69808 -1.60871,2.41306c-0.08937,0.17875 -0.2346,0.35749 -0.43569,0.53624c-0.20109,0.17875 -0.36866,0.3128 -0.50272,0.40218c-0.17875,0.08937 -0.33515,0.21226 -0.46921,0.36866c-0.13406,0.1564 -0.26812,0.27929 -0.40218,0.36866l-1.40762,0.80435c-0.49155,0.35749 -1.07247,0.62561 -1.74277,0.80435c-0.6703,0.17875 -1.34059,0.35749 -2.01089,0.53624c-0.35749,0.08937 -0.71498,0.14523 -1.07247,0.16757c-0.35749,0.02234 -0.71498,0.0782 -1.07247,0.16757c-0.17875,0.04469 -0.34632,0.05586 -0.50272,0.03351c-0.1564,-0.02234 -0.30163,-0.01117 -0.43569,0.03351c-0.22343,0.04469 -0.43569,0.04469 -0.63678,0c-0.20109,-0.04469 -0.41335,-0.04469 -0.63678,0h-10.12147c-0.6703,0 -1.39645,-0.01117 -2.17846,-0.03351c-0.78201,-0.02234 -1.37411,0.12289 -1.77628,0.43569c-0.49155,0.35749 -0.72615,1.00544 -0.70381,1.94386c0.02234,0.93841 0.03351,1.8098 0.03351,2.61415v9.85335c0,0.58092 0.01117,1.30708 0.03351,2.17846c0.02234,0.87138 -0.0782,1.48582 -0.30163,1.84331c-0.17875,0.26812 -0.39101,0.43569 -0.63678,0.50272c-0.24578,0.06703 -0.54741,0.14523 -0.9049,0.2346h-1.20653c-0.6703,0 -1.27356,-0.02234 -1.8098,-0.06703c-0.53624,-0.04469 -0.91607,-0.26812 -1.1395,-0.6703c-0.17875,-0.26812 -0.26812,-0.63678 -0.26812,-1.10599c0,-0.46921 0,-0.92724 0,-1.37411v-40.68696c0,-0.49155 -0.01117,-1.03896 -0.03351,-1.64222c-0.02234,-0.60327 0.0782,-1.08364 0.30163,-1.44114c0.17875,-0.26812 0.51389,-0.49155 1.00544,-0.6703c0.08937,-0.04469 0.17875,-0.05586 0.26812,-0.03351c0.08937,0.02234 0.17875,0.01117 0.26812,-0.03351h15.21571c1.69808,0 3.36265,0.01117 4.9937,0.03351c1.63105,0.02234 3.09453,0.2346 4.39044,0.63678c2.01089,0.6703 3.64194,1.54168 4.89316,2.61415c1.25122,1.07247 2.27901,2.54712 3.08336,4.42395c0.22343,0.49155 0.39101,1.00544 0.50272,1.54168c0.11172,0.53624 0.25695,1.09482 0.43569,1.67574c0.08937,0.3128 0.11172,0.60327 0.06703,0.87138c-0.04469,0.26812 -0.02234,0.55858 0.06703,0.87138zM476.91171,321.21709c0.17875,-0.62561 0.20109,-1.35176 0.06703,-2.17846c-0.13406,-0.8267 -0.26812,-1.48582 -0.40218,-1.97737c-0.44686,-1.25122 -1.03896,-2.24549 -1.77628,-2.98282c-0.73733,-0.73733 -1.68691,-1.35176 -2.84876,-1.84331c-0.9831,-0.40218 -2.11143,-0.64795 -3.38499,-0.73733c-1.27356,-0.08937 -2.60298,-0.13406 -3.98826,-0.13406h-8.64682c-0.08937,0.04469 -0.18992,0.06703 -0.30163,0.06703c-0.11172,0 -0.2346,0.02234 -0.36866,0.06703c-0.53624,0.13406 -0.89373,0.42452 -1.07247,0.87138c-0.17875,0.44686 -0.25695,1.03896 -0.2346,1.77628c0.02234,0.73733 0.03351,1.41879 0.03351,2.0444v8.04355c0,0.6703 -0.01117,1.40762 -0.03351,2.21198c-0.02234,0.80435 0.10054,1.42996 0.36866,1.87683c0.22343,0.35749 0.56975,0.56975 1.03896,0.63678c0.46921,0.06703 0.99427,0.10054 1.5752,0.10054h9.04899c0.6703,0 1.36293,-0.01117 2.07792,-0.03351c0.71498,-0.02234 1.34059,-0.10054 1.87683,-0.2346c1.20653,-0.3128 2.26783,-0.68147 3.18391,-1.10599c0.91607,-0.42452 1.68691,-1.08364 2.31252,-1.97737c0.35749,-0.53624 0.63678,-1.09482 0.83787,-1.67574c0.20109,-0.58092 0.39101,-1.22888 0.56975,-1.94386c0.04469,-0.17875 0.06703,-0.46921 0.06703,-0.87138z" data-paper-data="{&quot;glyphName&quot;:&quot;P&quot;,&quot;glyphIndex&quot;:9,&quot;lastGlyphOfWord&quot;:true,&quot;word&quot;:2}" fill="#ff4400" id="element-id-90729"></path></g><g data-paper-data="{&quot;fillRule&quot;:&quot;nonzero&quot;,&quot;fillRuleOriginal&quot;:&quot;nonzero&quot;,&quot;isIcon&quot;:true,&quot;iconStyle&quot;:&quot;standalone&quot;,&quot;selectedEffects&quot;:{&quot;container&quot;:&quot;&quot;,&quot;transformation&quot;:&quot;&quot;,&quot;pattern&quot;:&quot;&quot;},&quot;bounds&quot;:{&quot;x&quot;:203.3229772280356,&quot;y&quot;:114.99999999999997,&quot;width&quot;:143.3540455439288,&quot;height&quot;:159.71937241829036},&quot;iconType&quot;:&quot;initial&quot;,&quot;initialText&quot;:&quot;DU&quot;,&quot;rawInitialId&quot;:543,&quot;monogramSpecial&quot;:&quot;melted-letters&quot;,&quot;suitableAsStandaloneIcon&quot;:true}" id="element-id-74733"><path d="M245.49519,115h-13.69023v18.88308h13.69023zM300.25613,238.68417c3.4619,-0.15736 10.54305,-0.94416 13.53287,-2.20303c0.31472,-3.14718 0.47207,-6.76644 0.47207,-10.22833v-111.25281h-13.21815v111.09545c0,4.56341 -0.31472,8.8121 -0.78679,12.58872zM231.17552,240.41512h-14.16231v-93.31388h76.31911c2.20303,0 4.2487,0 6.29436,0.15736v-11.80193c-2.04567,0 -4.09133,-0.15736 -6.29436,-0.15736h-90.00935v116.76038h30.68501c-1.73095,-5.19284 -2.20303,-7.23851 -2.83246,-11.64457zM338.96643,152.29408c-4.56341,-8.02531 -11.64457,-12.74608 -23.28913,-15.10647v12.90344c4.72077,1.73095 8.02531,4.2487 10.22833,7.55323c4.2487,6.45172 6.29436,18.72572 6.29436,36.66465c0,17.15213 -1.88831,28.0099 -5.97964,34.61898c-5.66493,9.12682 -15.57854,11.48721 -31.78652,11.48721h-46.10619c0.78679,3.61926 3.14718,10.07098 4.72077,11.64457h40.2839c5.50756,0 14.31967,-0.47207 18.88308,-1.10151c13.69023,-2.20303 21.71554,-7.08116 26.75103,-15.89326c5.35021,-8.49738 7.71059,-22.34498 7.71059,-41.38542c0,-18.88308 -2.36039,-32.73067 -7.71059,-41.38542zM310.01238,252.68912c-2.36039,0.31472 -9.28418,0.78679 -15.10647,0.78679c-4.2487,5.97964 -11.17249,9.44154 -21.8729,9.44154c-9.91361,0 -16.5227,-3.61926 -20.77139,-9.44154l-1.88831,-2.98982c-3.77661,-6.45172 -4.87813,-15.42118 -4.87813,-24.39064v-77.57799h-13.69023v79.15157c0,8.02531 1.10151,16.83741 3.77661,24.39064c5.03549,14.47703 16.83741,22.65969 36.97936,22.65969c20.61403,0 31.94388,-8.34003 37.45144,-22.03026z" data-paper-data="{&quot;isPathIcon&quot;:true}" fill="#ff4400" id="element-id-51009"></path></g></g></g><g class="watermark-group" style="opacity:0.040000010281801224"><path class="watermark-path" d="M129.52,370.3a11.88,11.88,0,0,1,2.58,5.58,12,12,0,0,1,.11,3,11.81,11.81,0,0,1-.64,2.93,12.34,12.34,0,0,1-1.41,2.72,11.65,11.65,0,0,1-2.13,2.32,12,12,0,0,1-2.64,1.69,13,13,0,0,1-2.91.9,12.47,12.47,0,0,1-3,.12,12.17,12.17,0,0,1-2.93-.64,11.8,11.8,0,0,1-2.72-1.38,12.19,12.19,0,0,1-4-4.79,11.85,11.85,0,0,1-.89-2.92,12.14,12.14,0,0,1-.13-3,11.54,11.54,0,0,1,.64-2.92,11.67,11.67,0,0,1,3.5-5,11.44,11.44,0,0,1,2.67-1.69,11.64,11.64,0,0,1,2.92-.91,10.71,10.71,0,0,1,3-.12,11.68,11.68,0,0,1,5.66,2,11.7,11.7,0,0,1,2.34,2.12m-1.4,8.76a13,13,0,0,1-1.22,2.32,9.68,9.68,0,0,1-1.81,2,7.44,7.44,0,0,1-2.38,1.37,6.17,6.17,0,0,1-5.11-.46,8.73,8.73,0,0,1-3.85-4.58,6.69,6.69,0,0,1-.34-2.66,6.09,6.09,0,0,1,.77-2.47,7.15,7.15,0,0,1,1.75-2.11,9.58,9.58,0,0,1,1.09-.81,8.23,8.23,0,0,1,1.12-.63,8.14,8.14,0,0,1,1.19-.46,12.71,12.71,0,0,1,1.32-.37l2,2.38a12.83,12.83,0,0,0-1.56.17,7.86,7.86,0,0,0-1.23.32,4.5,4.5,0,0,0-1,.49,6.41,6.41,0,0,0-.93.67,4.49,4.49,0,0,0-1.15,1.39,3.87,3.87,0,0,0-.45,1.58,4.12,4.12,0,0,0,.26,1.63,6.11,6.11,0,0,0,2.36,2.82,4.43,4.43,0,0,0,1.57.53,3.91,3.91,0,0,0,1.62-.17,4.71,4.71,0,0,0,1.57-.89,10.5,10.5,0,0,0,.83-.79,5.71,5.71,0,0,0,.65-.93,10.13,10.13,0,0,0,.54-1.14,12.24,12.24,0,0,0,.44-1.49l2,2.33m-14.46,4.55a8.86,8.86,0,0,0,2.78,2.22,9,9,0,0,0,3.29.94,9.15,9.15,0,0,0,3.39-.37,8.68,8.68,0,0,0,3.11-1.69,8.8,8.8,0,0,0,2.22-2.78,9.15,9.15,0,0,0,1-3.29,8.95,8.95,0,0,0-4.83-8.76,9,9,0,0,0-6.73-.57,9,9,0,0,0-5.33,4.47,8.94,8.94,0,0,0-.57,6.71,8.76,8.76,0,0,0,1.7,3.12"></path><path class="watermark-path" d="M147,349c-.48.12-1.09.31-1.82.57a24.37,24.37,0,0,0-2.4,1A28.35,28.35,0,0,0,140,352a20.72,20.72,0,0,0-2.71,1.94c-.7.59-1.28,1.11-1.74,1.57a15.07,15.07,0,0,0-1.1,1.22,4.09,4.09,0,0,0-.59.92,2.32,2.32,0,0,0-.22.64,1.16,1.16,0,0,0,0,.47,1.83,1.83,0,0,0,.18.29,1.15,1.15,0,0,0,1,.37,5.54,5.54,0,0,0,1.51-.38q.87-.35,1.95-.9l2.26-1.18q1.2-.65,2.49-1.29c.87-.44,1.73-.83,2.59-1.17a18.94,18.94,0,0,1,2.6-.81,9.27,9.27,0,0,1,2.46-.29,6.25,6.25,0,0,1,2.24.49,5.12,5.12,0,0,1,1.89,1.47,6.35,6.35,0,0,1,1.41,2.61,6,6,0,0,1,.09,2.6,8.3,8.3,0,0,1-.9,2.52,17.79,17.79,0,0,1-1.62,2.37,23.92,23.92,0,0,1-2,2.15c-.72.67-1.41,1.29-2.09,1.87a33.79,33.79,0,0,1-5.33,3.7,32.29,32.29,0,0,1-4.91,2.28l-3.61-4.3a21.38,21.38,0,0,0,5.39-1.87,27.2,27.2,0,0,0,5.4-3.56,21.59,21.59,0,0,0,2.38-2.27,8.67,8.67,0,0,0,1.18-1.7,2.32,2.32,0,0,0,.27-1.19,1.34,1.34,0,0,0-.28-.74,1.21,1.21,0,0,0-1-.42,4.32,4.32,0,0,0-1.55.34,15.77,15.77,0,0,0-2,.88c-.72.37-1.48.77-2.27,1.21l-2.45,1.3c-.85.45-1.7.85-2.56,1.21a22.37,22.37,0,0,1-2.54.86,10,10,0,0,1-2.43.32,5.76,5.76,0,0,1-2.2-.45,5,5,0,0,1-1.89-1.45,6.12,6.12,0,0,1-1.31-2.41,6,6,0,0,1-.1-2.41,8.28,8.28,0,0,1,.81-2.38,14.06,14.06,0,0,1,1.49-2.24,22.37,22.37,0,0,1,1.85-2.05q1-1,2-1.77c.7-.59,1.44-1.15,2.23-1.7s1.62-1.06,2.44-1.53,1.63-.91,2.43-1.3,1.58-.75,2.3-1L147,349"></path><path class="watermark-path" d="M186.76,337.57l-10.6-12.63,3.92,18.24-4.66,3.91-17.27-7,10.6,12.63-4.86,4.07-15.09-18,6.59-5.54,18.69,7.52-4.15-19.71,6.57-5.52,15.09,18-4.83,4.05"></path><path class="watermark-path" d="M208.84,313.24l-10,8.42,1.16,4.82L194.56,331l-5.68-25.89,5.42-4.55,24.51,10.09-5.42,4.55-4.55-2m-11.23,3.45,6.57-5.52-8.83-3.87,2.26,9.39"></path><path class="watermark-path" d="M227.49,281.38c-.48.12-1.09.31-1.82.57a24.37,24.37,0,0,0-2.4,1,26.11,26.11,0,0,0-2.7,1.47,20.72,20.72,0,0,0-2.71,1.94c-.7.59-1.28,1.11-1.74,1.57a13.39,13.39,0,0,0-1.1,1.22,4.29,4.29,0,0,0-.59.91,2.48,2.48,0,0,0-.22.65,1.16,1.16,0,0,0,0,.47,1.83,1.83,0,0,0,.18.29,1.15,1.15,0,0,0,1,.37,5.54,5.54,0,0,0,1.51-.38q.87-.34,2-.9l2.26-1.18q1.2-.64,2.49-1.29c.87-.44,1.73-.83,2.59-1.17a18.94,18.94,0,0,1,2.6-.81,9.27,9.27,0,0,1,2.46-.29,6.08,6.08,0,0,1,2.24.49,5.09,5.09,0,0,1,1.89,1.46,6.47,6.47,0,0,1,1.41,2.61,6.07,6.07,0,0,1,.09,2.61,8.3,8.3,0,0,1-.9,2.52,16.32,16.32,0,0,1-1.63,2.36,21.41,21.41,0,0,1-2,2.16c-.72.67-1.41,1.29-2.1,1.86a33.36,33.36,0,0,1-5.32,3.71,31.92,31.92,0,0,1-4.92,2.28l-3.6-4.3a21.38,21.38,0,0,0,5.39-1.87,27.2,27.2,0,0,0,5.4-3.56,21.59,21.59,0,0,0,2.38-2.27,8.67,8.67,0,0,0,1.18-1.7A2.32,2.32,0,0,0,231,293a1.34,1.34,0,0,0-.28-.74,1.21,1.21,0,0,0-1-.42,4.32,4.32,0,0,0-1.55.34,16.54,16.54,0,0,0-2,.88c-.71.37-1.47.77-2.26,1.21l-2.46,1.3c-.84.44-1.7.85-2.55,1.21a24.53,24.53,0,0,1-2.54.86A10,10,0,0,1,214,298a5.76,5.76,0,0,1-2.2-.45,5,5,0,0,1-1.89-1.45,6.12,6.12,0,0,1-1.31-2.41,5.78,5.78,0,0,1-.1-2.41,8,8,0,0,1,.81-2.38,14.61,14.61,0,0,1,1.49-2.25,22.26,22.26,0,0,1,1.85-2q1-1,2-1.77c.7-.59,1.44-1.15,2.23-1.7s1.62-1.06,2.44-1.53,1.63-.91,2.43-1.31,1.58-.74,2.3-1l3.5,4.16"></path><path class="watermark-path" d="M261.64,274.74l-6.29-7.5L243,277.61l6.3,7.5-4.86,4.07-15.09-18,4.85-4.08,5.49,6.55L252,263.3l-5.49-6.55,4.86-4.07,15.09,18-4.86,4.08"></path><path class="watermark-path" d="M272.18,265.9l-15.09-18,4.86-4.08,15.09,18-4.86,4.08"></path><path class="watermark-path" d="M299.65,242.85l-22.51-2.18L287.51,253l-4.85,4.08-15.1-18,5.28-4.43,22.56,2.22L285,224.5l4.83-4.06,15.09,18-5.26,4.42"></path><path class="watermark-path" d="M306.68,205.52a31.88,31.88,0,0,1,5.29-3.66,34.48,34.48,0,0,1,5.14-2.35l3.69,4.39a20.77,20.77,0,0,0-2.37.61,20.47,20.47,0,0,0-2.61,1,25.12,25.12,0,0,0-2.76,1.49,23.9,23.9,0,0,0-2.8,2,20.42,20.42,0,0,0-2.8,2.77,12.77,12.77,0,0,0-1.64,2.52,7,7,0,0,0-.68,2.24,6,6,0,0,0,.66,3.64,8.16,8.16,0,0,0,.94,1.38,9.12,9.12,0,0,0,1.08,1.07,6.39,6.39,0,0,0,1.47.91,6.73,6.73,0,0,0,1.88.48,6.54,6.54,0,0,0,2.28-.18,11.67,11.67,0,0,0,2.74-1.07,19.38,19.38,0,0,0,3.18-2.22c.57-.48,1.06-.92,1.46-1.31a14.57,14.57,0,0,0,1-1.13,11.46,11.46,0,0,0,.81-1.05l.74-1.09-1.82-2.17-5.45,4.57-3.31-3.94,10.31-8.65,7.71,9.19a29,29,0,0,1-1.67,2.43q-1,1.26-2.1,2.52c-.74.84-1.5,1.65-2.3,2.44s-1.58,1.5-2.33,2.14a31,31,0,0,1-3.59,2.61,22.55,22.55,0,0,1-3.64,1.83,15.64,15.64,0,0,1-3.63.89,10.72,10.72,0,0,1-3.49-.15,10.45,10.45,0,0,1-3.28-1.33,12.54,12.54,0,0,1-3-2.67,12,12,0,0,1-2.08-3.44,10.45,10.45,0,0,1-.71-3.5,11.14,11.14,0,0,1,.51-3.51,15.72,15.72,0,0,1,1.56-3.43,21.62,21.62,0,0,1,2.42-3.28,30.3,30.3,0,0,1,3.15-3"></path><path class="watermark-path" d="M336.91,211.59l-15.1-18,4.86-4.08,11.79,14,13.13-11,3.31,3.94-18,15.1"></path><path class="watermark-path" d="M374.54,164.71a12.28,12.28,0,0,1,2.59,4.81,10.44,10.44,0,0,1,0,5,14.62,14.62,0,0,1-2.33,5,25.55,25.55,0,0,1-4.56,4.85,26.07,26.07,0,0,1-5.6,3.67,14.79,14.79,0,0,1-5.38,1.43,10.43,10.43,0,0,1-4.94-.89,13.24,13.24,0,0,1-6.87-8.18,10.48,10.48,0,0,1,0-5,14.51,14.51,0,0,1,2.36-5,25.23,25.23,0,0,1,4.57-4.89,25,25,0,0,1,5.59-3.64,14.45,14.45,0,0,1,5.35-1.43,10.31,10.31,0,0,1,4.93.92,12.22,12.22,0,0,1,4.28,3.38m-4.91,4.11a8.36,8.36,0,0,0-2-1.72,5.5,5.5,0,0,0-2.65-.85,7.72,7.72,0,0,0-3.32.57,14.49,14.49,0,0,0-4,2.52,16.72,16.72,0,0,0-2.38,2.4,10.15,10.15,0,0,0-1.39,2.24,6.71,6.71,0,0,0-.56,2.1,5.69,5.69,0,0,0,.1,1.9,6.21,6.21,0,0,0,.61,1.69,9.85,9.85,0,0,0,1,1.44,10.48,10.48,0,0,0,1.26,1.23,6.67,6.67,0,0,0,1.57.92,6.1,6.1,0,0,0,1.85.41,6.8,6.8,0,0,0,2.15-.2,11.06,11.06,0,0,0,2.45-1,17.67,17.67,0,0,0,2.77-1.94,14.39,14.39,0,0,0,3.18-3.52,7.74,7.74,0,0,0,1.14-3.17,5.54,5.54,0,0,0-.37-2.74,8.52,8.52,0,0,0-1.36-2.3"></path><path class="watermark-path" d="M382.66,141.76A32.3,32.3,0,0,1,388,138.1a34.12,34.12,0,0,1,5.15-2.35l3.69,4.4a19.62,19.62,0,0,0-2.37.6,22.08,22.08,0,0,0-2.61,1,26,26,0,0,0-2.77,1.49,23.9,23.9,0,0,0-2.8,2,21,21,0,0,0-2.8,2.78,13.19,13.19,0,0,0-1.64,2.51,7.29,7.29,0,0,0-.68,2.24,6.36,6.36,0,0,0,.06,2,5.8,5.8,0,0,0,.61,1.68,8.12,8.12,0,0,0,.93,1.38,9.16,9.16,0,0,0,1.08,1.08,6.56,6.56,0,0,0,1.48.9,6,6,0,0,0,1.87.48,6.76,6.76,0,0,0,2.28-.17,12,12,0,0,0,2.74-1.08,18.57,18.57,0,0,0,3.18-2.22c.58-.48,1.06-.92,1.46-1.31s.75-.77,1.05-1.12.57-.72.81-1.06l.73-1.09-1.82-2.17-5.45,4.57-3.3-3.94,10.3-8.65,7.71,9.19a29,29,0,0,1-1.67,2.43q-1,1.26-2.1,2.52c-.73.84-1.5,1.66-2.3,2.44s-1.57,1.5-2.33,2.14a31,31,0,0,1-3.59,2.61,22.15,22.15,0,0,1-3.64,1.83,15.56,15.56,0,0,1-3.62.89,11,11,0,0,1-3.49-.14,10.84,10.84,0,0,1-3.28-1.33,12.82,12.82,0,0,1-3-2.68,12.12,12.12,0,0,1-2.08-3.43A10.71,10.71,0,0,1,375,155a11.18,11.18,0,0,1,.51-3.51,15.51,15.51,0,0,1,1.57-3.43,21.44,21.44,0,0,1,2.42-3.28,30.19,30.19,0,0,1,3.14-3"></path><path class="watermark-path" d="M428.63,119.31a12.26,12.26,0,0,1,2.59,4.82,10.44,10.44,0,0,1,0,5,14.53,14.53,0,0,1-2.34,5,25.29,25.29,0,0,1-4.56,4.86,26,26,0,0,1-5.59,3.67,14.84,14.84,0,0,1-5.38,1.43,10.61,10.61,0,0,1-4.95-.89,12.15,12.15,0,0,1-4.3-3.37,12,12,0,0,1-2.56-4.81,10.48,10.48,0,0,1,0-5,14.39,14.39,0,0,1,2.35-5,27.89,27.89,0,0,1,10.16-8.53,14.49,14.49,0,0,1,5.36-1.43,10.27,10.27,0,0,1,4.92.92,12.21,12.21,0,0,1,4.28,3.37m-4.91,4.12a8.17,8.17,0,0,0-2-1.72,5.58,5.58,0,0,0-2.65-.86,7.86,7.86,0,0,0-3.31.58,14.49,14.49,0,0,0-4,2.52,16.21,16.21,0,0,0-2.38,2.4,9.85,9.85,0,0,0-1.4,2.24,7,7,0,0,0-.56,2.1,6,6,0,0,0,.1,1.9,6.23,6.23,0,0,0,.62,1.69,8.49,8.49,0,0,0,1,1.44,9.18,9.18,0,0,0,1.26,1.23,6.67,6.67,0,0,0,1.57.92,6,6,0,0,0,1.84.41,6.86,6.86,0,0,0,2.16-.2,11.26,11.26,0,0,0,2.45-1,17.62,17.62,0,0,0,2.76-1.94,14.67,14.67,0,0,0,3.19-3.52,7.71,7.71,0,0,0,1.13-3.17,5.53,5.53,0,0,0-.36-2.74,8.55,8.55,0,0,0-1.37-2.3"></path></g><rect data-element-id="element-id-74733" stroke-width="2" fill="transparent" class="invisible-element-box grouping-element" x="203" y="115" width="143" height="160" data-element-name="isIcon"></rect><rect data-element-id="element-id-51009" stroke-width="2" fill="transparent" class="invisible-element-box individual-element" x="203" y="115" width="143" height="160"></rect><rect data-element-id="element-id-98338" stroke-width="2" fill="transparent" class="invisible-element-box grouping-element" x="67" y="306" width="417" height="49" data-element-name="isPrimaryText"></rect><rect data-element-id="element-id-95080" stroke-width="2" fill="transparent" class="invisible-element-box individual-element" x="333" y="306" width="41" height="48"></rect><rect data-element-id="element-id-25949" stroke-width="2" fill="transparent" class="invisible-element-box individual-element" x="205" y="306" width="40" height="48"></rect><rect data-element-id="element-id-49336" stroke-width="2" fill="transparent" class="invisible-element-box individual-element" x="67" y="306" width="39" height="48"></rect><rect data-element-id="element-id-99515" stroke-width="2" fill="transparent" class="invisible-element-box individual-element" x="399" y="306" width="38" height="49"></rect><rect data-element-id="element-id-14647" stroke-width="2" fill="transparent" class="invisible-element-box individual-element" x="291" y="306" width="38" height="48"></rect><rect data-element-id="element-id-90729" stroke-width="2" fill="transparent" class="invisible-element-box individual-element" x="448" y="306" width="36" height="48"></rect><rect data-element-id="element-id-6906" stroke-width="2" fill="transparent" class="invisible-element-box individual-element" x="114" y="306" width="33" height="48"></rect><rect data-element-id="element-id-99183" stroke-width="2" fill="transparent" class="invisible-element-box individual-element" x="250" y="306" width="33" height="48"></rect><rect data-element-id="element-id-60770" stroke-width="2" fill="transparent" class="invisible-element-box individual-element" x="155" y="306" width="32" height="48"></rect><rect data-element-id="element-id-63320" stroke-width="2" fill="transparent" class="invisible-element-box individual-element" x="192" y="306" width="6" height="48"></rect></svg>